<!DOCTYPE svg PUBLIC "-//W3C//DTD SVG 1.1//EN" "http://www.w3.org/Graphics/SVG/1.1/DTD/svg11.dtd">
<!-- Uploaded to: SVG Repo, www.svgrepo.com, Transformed by: SVG Repo Mixer Tools -->
<svg fill="#5d4037" xmlns="http://www.w3.org/2000/svg" width="800px" height="800px" viewBox="-10 -10 120.00 120.00" enable-background="new 0 0 100 100" xml:space="preserve">
<g id="SVGRepo_bgCarrier" stroke-width="0">
<path transform="translate(-10, -10), scale(3.75)" d="M16,29.207406890889008C18.24413434981044,29.13801431471479,19.95364985027684,27.3314610110808,21.957177172104515,26.31813353177451C24.08924978422477,25.239791478636484,26.918824154307757,25.06073346849377,28.193831260875413,23.040111760919295C29.468799871682876,21.01955106113709,28.759034827720615,18.371380798558835,28.467892923702795,16C28.203697865339112,13.848104035070737,27.674406390398918,11.763189139186787,26.579580880594623,9.891876130675278C25.48885260229926,8.027566249651104,24.065713153190604,6.3496424516110554,22.192613461986188,5.27407885220493C20.321771469189805,4.199811659091283,18.137103785898116,4.111679019635153,16,3.816912718117237C13.55605144577579,3.479823952853559,10.920382028476014,2.2716911507153132,8.735782374317452,3.4180059950804598C6.553778278161602,4.562958884333026,6.119577119163232,7.4512030531257105,4.945325586527554,9.617580751578007C3.80365692463554,11.723846282774117,1.825184906467611,13.60593832395962,1.9159070799748115,15.999999999999998C2.0063363349038195,18.386331866280095,3.998484655179251,20.189284950318093,5.418688441598011,22.109123076622677C6.701195064918613,23.84282153330531,8.03537926779913,25.49186717887225,9.826253270730371,26.69324300815716C11.703509509446839,27.95256681702193,13.740551800013726,29.277272998211185,16,29.207406890889008" fill="#ffb7b7" strokewidth="0"/>
</g>
<g id="SVGRepo_tracerCarrier" stroke-linecap="round" stroke-linejoin="round"/>
<g id="SVGRepo_iconCarrier"> <ellipse cx="41.3" cy="42.3" rx="12.2" ry="13.5"/> <path d="M52.6,57.4c-3.1,2.8-7,4.5-11.3,4.5c-4.3,0-8.3-1.7-11.3-4.6c-5.5,2.5-11,5.7-11,10.7v2.1 c0,2.5,2,4.5,4.5,4.5h35.7c2.5,0,4.5-2,4.5-4.5v-2.1C63.6,63,58.2,59.9,52.6,57.4z"/> <path d="M68,47.4c-0.2-0.1-0.3-0.2-0.5-0.3c-0.4-0.2-0.9-0.2-1.3,0.1c-2.1,1.3-4.6,2.1-7.2,2.1c-0.3,0-0.7,0-1,0 c-0.5,1.3-1,2.6-1.7,3.7c0.4,0.2,0.9,0.3,1.4,0.6c5.7,2.5,9.7,5.6,12.5,9.8H75c2.2,0,4-1.8,4-4v-1.9C79,52.6,73.3,49.6,68,47.4z"/> <path d="M66.9,34.2c0-4.9-3.6-8.9-7.9-8.9c-2.2,0-4.1,1-5.6,2.5c3.5,3.6,5.7,8.7,5.7,14.4c0,0.3,0,0.5,0,0.8 C63.4,43,66.9,39.1,66.9,34.2z"/> </g>
</svg>