<!DOCTYPE svg PUBLIC "-//W3C//DTD SVG 1.1//EN" "http://www.w3.org/Graphics/SVG/1.1/DTD/svg11.dtd">
<!-- Uploaded to: SVG Repo, www.svgrepo.com, Transformed by: SVG Repo Mixer Tools -->
<svg width="800px" height="800px" viewBox="-2.4 -2.4 28.80 28.80" id="meteor-icon-kit__regular-inventory" fill="none" xmlns="http://www.w3.org/2000/svg">
<g id="SVGRepo_bgCarrier" stroke-width="0">
<path transform="translate(-2.4, -2.4), scale(0.8999999999999999)" d="M16,27.15058738272637C18.188454555107292,27.678784476033318,20.380878483338048,30.277359581166223,22.350633142971184,29.187225603161085C24.380752499698918,28.0636836029675,22.80354585327482,24.39339817826487,24.254131596155684,22.5824502962676C25.709514311190595,20.7655137530657,29.22437562063091,21.32861458808756,30.29942677779814,19.263750849552196C31.293263109771615,17.354877406414456,30.370617784765514,14.8155647936054,29.25652984927111,12.974283568845632C28.18750191727704,11.207474148141399,25.372808981896593,11.142895568787047,24.31331481654229,9.37035266040572C23.014496597347907,7.19741853864055,24.48384373243572,3.859544578093893,22.721910547851525,2.041808921541037C21.11563973702989,0.3846656470645964,18.30759336578825,0.7584948549728491,16.000000000000004,0.7937455005012453C13.711238727762291,0.828708468198639,11.420954881802903,1.2166470169627353,9.37626671333243,2.2456761050463836C7.346578078894785,3.2671563859008965,5.274434339860105,4.619984729093107,4.309561232460366,6.677186178527931C3.359455286271909,8.702902632459299,4.486440571437811,11.086662749046884,4.189511338761738,13.304333033713506C3.923240992251715,15.29302181932511,2.0579374482428117,17.130237769926058,2.6534352066049234,19.046266319617743C3.2584099385141645,20.992787262649273,5.68329710728122,21.65812031765972,7.206752720060853,23.01238070761405C8.491498347206836,24.154442280931782,9.416578880017651,25.70893922703509,10.971925677286027,26.44090391467152C12.522884277815276,27.170803464770085,14.333720402280427,26.748420457167803,16,27.15058738272637" fill="#ffb7b7" strokewidth="0"/>
</g>
<g id="SVGRepo_tracerCarrier" stroke-linecap="round" stroke-linejoin="round"/>
<g id="SVGRepo_iconCarrier"> <g clip-path="url(#clip0_525_147)"> <path fill-rule="evenodd" clip-rule="evenodd" d="M2 1C2 0.447715 1.55228 0 1 0C0.447715 0 0 0.447715 0 1V23C0 23.5523 0.447715 24 1 24C1.55228 24 2 23.5523 2 23V22H22V23C22 23.5523 22.4477 24 23 24C23.5523 24 24 23.5523 24 23V1C24 0.447715 23.5523 0 23 0C22.4477 0 22 0.447715 22 1V8H20V3C20 2.44772 19.5523 2 19 2H11C10.4477 2 10 2.44772 10 3V4H5C4.44772 4 4 4.44772 4 5V8H2V1ZM10 6H6V8H10V6ZM2 10V20H4V13C4 12.4477 4.44772 12 5 12H13C13.5523 12 14 12.4477 14 13V14H19C19.5523 14 20 14.4477 20 15V20H22V10H2ZM18 8V4H12V8H18ZM12 20H6V14H12V20ZM14 20V16H18V20H14Z" fill="#5d4037"/> </g> <defs> <clipPath id="clip0_525_147"> <rect width="24" height="24" fill="white"/> </clipPath> </defs> </g>
</svg>