<!DOCTYPE svg PUBLIC "-//W3C//DTD SVG 1.1//EN" "http://www.w3.org/Graphics/SVG/1.1/DTD/svg11.dtd">
<!-- Uploaded to: SVG Repo, www.svgrepo.com, Transformed by: SVG Repo Mixer Tools -->
<svg width="800px" height="800px" viewBox="-2.4 -2.4 28.80 28.80" xmlns="http://www.w3.org/2000/svg" fill="#5d4037">
<g id="SVGRepo_bgCarrier" stroke-width="0">
<path transform="translate(-2.4, -2.4), scale(0.8999999999999999)" d="M16,27.983583663443202C17.778942452292085,27.836650694320603,18.54819856043101,25.34237181626057,20.2668348379716,24.86017383668829C22.492931449433286,24.23559765241525,25.426870508671193,26.443448349787744,27.11604829520193,24.864752704955155C28.680455113952068,23.402667274279676,26.76424084302357,20.644098087106926,27.048776353083912,18.521811102587602C27.302789267579445,16.627185358970003,29.53295706878329,14.82004452311806,28.692960673932333,13.102914555484146C27.764294153792225,11.204524132089741,24.140056545055938,12.186231248956084,23.060678376343347,10.369296887408762C21.717033885854867,8.10751884219955,24.392665090978056,4.377193328873949,22.453297213461262,2.599590257807053C20.815252374642288,1.0981765395607705,18.175193372851076,3.4437206589702276,16,3.8975574556542067C14.2160425018849,4.269765998797995,12.30275969948363,4.134402879137671,10.725112270496947,5.046582765170037C9.181137522123812,5.939293445725865,7.82423739804628,7.3126182073407975,7.202467774117313,8.984202162023172C6.607913068725727,10.582620720062959,8.028471457232813,12.454780934808353,7.382448289304129,14.033100056813993C6.55222025619609,16.06145576498606,3.653000920840888,16.809916311563196,3.128320565655031,18.93787683533113C2.620049416281386,20.999286092504757,3.017108008267485,23.702641539234637,4.669594128964272,25.035697167387944C6.438652471819418,26.46279125970034,9.179980035894381,25.02191152588829,11.379669401447767,25.59421534713158C13.07897234016211,26.036331211537515,14.250083888032902,28.128119182124827,16,27.983583663443202" fill="#ffb7b7" strokewidth="0"/>
</g>
<g id="SVGRepo_tracerCarrier" stroke-linecap="round" stroke-linejoin="round"/>
<g id="SVGRepo_iconCarrier">
<path d="M3.5 12c.015 0 .028-.004.042-.004l.94 4.226a2.497 2.497 0 1 0 3.345 3.173l7.182 1.197a2.491 2.491 0 1 0 3.527-2.36l1.902-8.238c.021 0 .04.006.062.006a2.5 2.5 0 1 0-2.03-3.95l-4.53-2.012a2.5 2.5 0 1 0-4.692.528L5.151 7.637A2.495 2.495 0 1 0 3.5 12zm1.018-.222a2.51 2.51 0 0 0 1.26-1.26l4.226.94c0 .014-.004.027-.004.042a2.484 2.484 0 0 0 .416 1.377l-3.54 3.54A2.483 2.483 0 0 0 5.5 16c-.014 0-.028.004-.042.004zm7.184-2.635a2.501 2.501 0 0 0-1.48 1.339l-4.226-.94c0-.014.004-.027.004-.042a2.472 2.472 0 0 0-.247-1.065l4.096-3.072a2.477 2.477 0 0 0 1.457.617zM14 11v1a1 1 0 0 1-1 1h-1a1 1 0 0 1-1-1v-1a1 1 0 0 1 1-1h1a1 1 0 0 1 1 1zm1.173 8.605L7.99 18.408a2.483 2.483 0 0 0-.407-1.285l3.54-3.54a2.405 2.405 0 0 0 2.123.29l2.632 4.74a2.494 2.494 0 0 0-.706.992zM6 20H5a1 1 0 0 1-1-1v-1a1 1 0 0 1 1-1h1a1 1 0 0 1 1 1v1a1 1 0 0 1-1 1zm13 0v1a1 1 0 0 1-1 1h-1a1 1 0 0 1-1-1v-1a1 1 0 0 1 1-1h1a1 1 0 0 1 1 1zm-1.438-1.994c-.02 0-.04-.006-.062-.006a2.466 2.466 0 0 0-.747.127l-2.632-4.74a2.411 2.411 0 0 0 .784-2.53l3.638-1.82a2.502 2.502 0 0 0 .92.731zM20 6h1a1 1 0 0 1 1 1v1a1 1 0 0 1-1 1h-1a1 1 0 0 1-1-1V7a1 1 0 0 1 1-1zm-1.939.963a2.301 2.301 0 0 0 .034 1.18l-3.638 1.82a2.483 2.483 0 0 0-1.763-.943l-.396-3.163a2.499 2.499 0 0 0 1.231-.908zM10 4V3a1 1 0 0 1 1-1h1a1 1 0 0 1 1 1v1a1 1 0 0 1-1 1h-1a1 1 0 0 1-1-1zM2 9a1 1 0 0 1 1-1h1a1 1 0 0 1 1 1v1a1 1 0 0 1-1 1H3a1 1 0 0 1-1-1z"/>
<path fill="none" d="M0 0h24v24H0z"/>
</g>
</svg>