<!DOCTYPE svg PUBLIC "-//W3C//DTD SVG 1.1//EN" "http://www.w3.org/Graphics/SVG/1.1/DTD/svg11.dtd">
<!-- Uploaded to: SVG Repo, www.svgrepo.com, Transformed by: SVG Repo Mixer Tools -->
<svg fill="#5d4037" version="1.1" id="Layer_1" xmlns="http://www.w3.org/2000/svg" xmlns:xlink="http://www.w3.org/1999/xlink" viewBox="-51.2 -51.2 614.40 614.40" xml:space="preserve" width="800px" height="800px">
<g id="SVGRepo_bgCarrier" stroke-width="0">
<path transform="translate(-51.2, -51.2), scale(19.2)" d="M16,25.431292331832296C18.97290641496049,25.06950676641108,22.079339880851737,26.215650276616802,24.602758465359695,24.602758465359695C27.690865219788588,22.62893528474088,30.416712254775703,19.649325057443793,30.75554539986393,16C31.11614115725401,12.116285693629834,29.185561755220522,8.32895282866689,26.363765460346187,5.636234539653815C23.60359039976434,3.002318732192061,19.801831807179987,1.5998055237093958,16,1.9194205355118292C12.46133069143539,2.216911821340361,9.825275511430517,4.8052308456629,7.2436385244244015,7.243638524424398C4.547868555599722,9.78984708327364,1.5085950836113573,12.315289951288083,1.0923432284856531,15.999999999999996C0.63858012854538,20.016763969927947,1.5972382041304969,24.8255045476383,5.013319828280773,26.98668017171922C8.262731368316292,29.042412377672825,12.183070400126367,25.89579065122578,16,25.431292331832296" fill="#ffb7b7" strokewidth="0"/>
</g>
<g id="SVGRepo_tracerCarrier" stroke-linecap="round" stroke-linejoin="round"/>
<g id="SVGRepo_iconCarrier"> <g> <g> <rect x="66.783" y="278.261" width="322.783" height="66.783"/> </g> </g> <g> <g> <rect x="66.783" y="378.435" width="322.783" height="66.783"/> </g> </g> <g> <g> <rect y="478.609" width="512" height="33.391"/> </g> </g> <g> <g> <path d="M256,0c-22.928,10.021-38.957,40.479-38.957,61.217c0,21.515,17.441,38.957,38.957,38.957s38.957-17.441,38.957-38.957 C294.957,40.479,278.928,10.021,256,0z"/> </g> </g> <g> <g> <path d="M467.478,400.696v-11.13V222.609c0-12.295-9.966-22.261-22.261-22.261H278.261v-66.783h-44.522v66.783H66.783 c-12.295,0-22.261,9.966-22.261,22.261s9.966,22.261,22.261,22.261h356.174v200.348h44.522c12.295,0,22.261-9.966,22.261-22.261 C489.739,410.662,479.773,400.696,467.478,400.696z"/> </g> </g> </g>
</svg>