<!DOCTYPE svg PUBLIC "-//W3C//DTD SVG 1.1//EN" "http://www.w3.org/Graphics/SVG/1.1/DTD/svg11.dtd">
<!-- Uploaded to: SVG Repo, www.svgrepo.com, Transformed by: SVG Repo Mixer Tools -->
<svg width="800px" height="800px" viewBox="-3.2 -3.2 38.40 38.40" version="1.1" xmlns="http://www.w3.org/2000/svg" xmlns:xlink="http://www.w3.org/1999/xlink" xmlns:sketch="http://www.bohemiancoding.com/sketch/ns" fill="" stroke="">
<g id="SVGRepo_bgCarrier" stroke-width="0">
<path transform="translate(-3.2, -3.2), scale(1.2)" d="M16,28.357033590120928C17.685854144589147,28.158377349225095,19.083602975462355,27.04390651248251,20.725957392418007,26.614674095275326C22.682641685445954,26.103290973497906,25.01835518489359,26.790291621084435,26.63651436082978,25.577160547723185C28.22023455190888,24.389848320422605,28.452378870451856,22.12358259253308,29.17465084526168,20.28070355061703C29.929535793218577,18.35461241297605,30.973801138669195,16.491016137952364,31.00828883401509,14.422565279454455C31.044009858299386,12.280143682237833,30.798476553227868,9.879418960188215,29.37477313902813,8.27807112783194C27.92580511859326,6.6483062656178715,25.45801157550915,6.503643884919807,23.379941825883428,5.8423814967250305C21.739906690356218,5.3205060637000345,19.932875320200864,5.532708893103165,18.384689574738086,4.780917624927852C16.269725870255705,3.753901809676119,15.089952729018187,0.8177719374323773,12.7430274757237,0.6771489965456539C10.595882536752287,0.5484964817694116,8.804085366483129,2.5183219998597535,7.36932852098661,4.1208998147597615C6.022240006620647,5.625554888966718,5.53262521349808,7.65344012866376,4.809196237766367,9.538986435426128C4.164582499347822,11.21910859604874,3.854329713927873,12.948309222012627,3.322875564392133,14.667580530827605C2.6848442849073306,16.73163229127201,0.6928231972911915,18.70212546795373,1.3395276372183194,20.763476226745937C1.983899979776239,22.81739349601063,4.71622502547602,23.319011411040343,6.441111256450972,24.606862083684632C7.887970994148149,25.687130018435344,9.06977629535397,27.13066718273272,10.750695715009513,27.790130461501587C12.407161266545577,28.43999992639688,14.232842429756882,28.56527039465224,16,28.357033590120928" fill="#ffb7b7" strokewidth="0"/>
</g>
<g id="SVGRepo_tracerCarrier" stroke-linecap="round" stroke-linejoin="round"/>
<g id="SVGRepo_iconCarrier"> <title>clipboard</title> <desc>Created with Sketch Beta.</desc> <defs> </defs> <g id="Page-1" stroke="none" stroke-width="1" fill="none" fill-rule="evenodd" sketch:type="MSPage"> <g id="Icon-Set" sketch:type="MSLayerGroup" transform="translate(-466.000000, -99.000000)" fill="#5d4037"> <path d="M487,113 L473,113 C472.447,113 472,113.448 472,114 C472,114.553 472.447,115 473,115 L487,115 C487.553,115 488,114.553 488,114 C488,113.448 487.553,113 487,113 L487,113 Z M492,127 C492,128.104 491.104,129 490,129 L470,129 C468.896,129 468,128.104 468,127 L468,107 C468,105.896 468.896,105 470,105 L473,105 L473,109 L487,109 L487,105 L490,105 C491.104,105 492,105.896 492,107 L492,127 L492,127 Z M475,103 L477.223,103 C477.223,101.896 478.466,101 480,101 C481.534,101 482.777,101.896 482.777,103 L485,103 L485,107 L475,107 L475,103 L475,103 Z M490,103 L487,103 L487,101 L484.307,101 C483.44,99.81 481.846,99 480,99 C478.154,99 476.56,99.81 475.693,101 L473,101 L473,103 L470,103 C467.791,103 466,104.791 466,107 L466,127 C466,129.209 467.791,131 470,131 L490,131 C492.209,131 494,129.209 494,127 L494,107 C494,104.791 492.209,103 490,103 L490,103 Z M487,123 L473,123 C472.447,123 472,123.448 472,124 C472,124.553 472.447,125 473,125 L487,125 C487.553,125 488,124.553 488,124 C488,123.448 487.553,123 487,123 L487,123 Z M487,118 L473,118 C472.447,118 472,118.448 472,119 C472,119.553 472.447,120 473,120 L487,120 C487.553,120 488,119.553 488,119 C488,118.448 487.553,118 487,118 L487,118 Z" id="clipboard" sketch:type="MSShapeGroup"> </path> </g> </g> </g>
</svg>