<!DOCTYPE svg PUBLIC "-//W3C//DTD SVG 1.1//EN" "http://www.w3.org/Graphics/SVG/1.1/DTD/svg11.dtd">
<!-- Uploaded to: SVG Repo, www.svgrepo.com, Transformed by: SVG Repo Mixer Tools -->
<svg fill="#5d4037" width="800px" height="800px" viewBox="-1.9 -1.9 22.80 22.80" xmlns="http://www.w3.org/2000/svg" class="cf-icon-svg" transform="rotate(90)">
<g id="SVGRepo_bgCarrier" stroke-width="0">
<path transform="translate(-1.9, -1.9), scale(0.7125)" d="M16,31.337080909037276C18.90762657297063,30.71112358329606,19.19205607008671,26.42687874756141,21.478461246793803,24.524652097180066C23.34259764671661,22.973741534168614,26.825401160036993,23.608323616351914,27.901597065779537,21.435277260555367C28.971890442055635,19.27414924609296,26.47325733352581,16.909848253464315,26.443944324483418,14.498387502447292C26.4078031868212,11.52520467964356,29.98788774839297,7.765040453112811,27.712163452002418,5.851352598089319C25.242860522083394,3.7748818081720716,21.535661027769645,8.596510659328501,18.42171772710831,7.752386840595358C15.424549788580821,6.939918339605938,14.833334281700278,1.88926822761797,11.749527930297305,1.5242215129583379C8.876652520192117,1.1841438263006698,5.460546308046608,3.355716581725395,4.59250415390065,6.115348581390409C3.6560912333628472,9.092341171062941,7.436643439459613,11.671338660117637,7.577101715737646,14.78897005419557C7.677260447345912,17.01210716172242,5.048344375353386,18.689910510103555,5.25883522838452,20.905325588857522C5.49241223707682,23.363722329881835,6.990703217990683,25.541745732824207,8.762209403901604,27.262222000765135C10.789414223449837,29.231031260381002,13.237382735396084,31.931820457462585,16,31.337080909037276" fill="#ffb7b7" strokewidth="0"/>
</g>
<g id="SVGRepo_tracerCarrier" stroke-linecap="round" stroke-linejoin="round"/>
<g id="SVGRepo_iconCarrier">
<path d="m13.842 11.52-4.389 4.388a1.112 1.112 0 0 1-1.567 0l-6.28-6.28a3.027 3.027 0 0 1-.771-1.892l.043-3.681A1.141 1.141 0 0 1 2 2.935L5.67 2.9a3.04 3.04 0 0 1 1.892.773l6.28 6.28a1.112 1.112 0 0 1 0 1.567zM3.826 5.133a.792.792 0 1 0-.792.792.792.792 0 0 0 .792-.792zm6.594 7.348a.554.554 0 0 0 0-.784l-.401-.401a2.53 2.53 0 0 0 .35-.83 1.565 1.565 0 0 0-.397-1.503 1.59 1.59 0 0 0-1.017-.46 2.14 2.14 0 0 0-.75.085h-.002a2.444 2.444 0 0 0-.59.277H7.61a2.677 2.677 0 0 0-.438.357 2.043 2.043 0 0 1-.259.22 1.29 1.29 0 0 1-.329.17h-.002a.835.835 0 0 1-.338.038h-.002a.53.53 0 0 1-.314-.136.539.539 0 0 1-.106-.534 1.54 1.54 0 0 1 .41-.71 1.632 1.632 0 0 1 .23-.165l.03-.019a1.783 1.783 0 0 1 .322-.155.942.942 0 0 1 .325-.06.554.554 0 0 0 0-1.108h-.001a2.058 2.058 0 0 0-.717.132 2.846 2.846 0 0 0-.529.26l-.01.006-.398-.4a.554.554 0 1 0-.784.785l.388.387a2.513 2.513 0 0 0-.347.803 1.644 1.644 0 0 0 .404 1.561 1.622 1.622 0 0 0 .983.456 1.922 1.922 0 0 0 .805-.089 2.372 2.372 0 0 0 .624-.319 3.142 3.142 0 0 0 .398-.339 1.569 1.569 0 0 1 .256-.208 1.381 1.381 0 0 1 .32-.151 1.023 1.023 0 0 1 .348-.038.485.485 0 0 1 .308.139c.05.049.165.165.097.488a1.558 1.558 0 0 1-.413.729 2.476 2.476 0 0 1-.28.219 1.727 1.727 0 0 1-.306.157.687.687 0 0 1-.32.042.554.554 0 1 0-.08 1.106c.052.004.103.005.152.005a1.723 1.723 0 0 0 .685-.134 2.678 2.678 0 0 0 .507-.27l.01-.007.397.398a.555.555 0 0 0 .783 0z"/>
</g>
</svg>