<!DOCTYPE svg PUBLIC "-//W3C//DTD SVG 1.1//EN" "http://www.w3.org/Graphics/SVG/1.1/DTD/svg11.dtd">
<!-- Uploaded to: SVG Repo, www.svgrepo.com, Transformed by: SVG Repo Mixer Tools -->
<svg width="800px" height="800px" viewBox="-4.8 -4.8 57.60 57.60" id="a" xmlns="http://www.w3.org/2000/svg" fill="" stroke="">
<g id="SVGRepo_bgCarrier" stroke-width="0">
<path transform="translate(-4.8, -4.8), scale(1.7999999999999998)" d="M16,29.85204886893431C18.226865719196304,30.274574138703983,20.62565007191258,30.82283210304812,22.71394832460989,29.94165735153343C24.81004240540032,29.05719308575805,25.942435669395685,26.838734848190875,27.35943009636485,25.058843214720852C28.775504636820866,23.280107053902896,30.766469740601188,21.693229769846994,31.074016977647922,19.44054600799447C31.381548205650926,17.187979507194903,30.0520609023475,15.048612574738861,29.001319809442542,13.032533595035353C28.098595159711902,11.300456870263366,26.434620427272122,10.163459338368895,25.381613817075902,8.518412636110497C24.194119386526317,6.663263980812132,24.13564703739009,4.068512413641223,22.39740588178922,2.715649803906974C20.64704265598295,1.353352660028474,18.2159397446592,1.1206551753906897,16.000000000000004,1.2167591738204173C13.819130969058179,1.311342176102057,11.846614711522838,2.3449907255801703,9.864354502511615,3.259200842682647C7.857713170183413,4.184655431878838,5.295887661416345,4.68437567604422,4.254864142125889,6.633566704536889C3.1834784177961346,8.639607301335367,4.747337637498171,11.110667702996423,4.465775793971563,13.367388592821099C4.217822837694252,15.35473392738848,2.7564324827015816,17.031712894496067,2.7077284433953697,19.033874242616804C2.6538449213633704,21.248957563217736,2.691461395119319,23.78405925235754,4.172288356827348,25.432285286804756C5.6626754086210305,27.09115212519348,8.32132495642323,26.82656163653145,10.41028554947422,27.60716165724636C12.315020675249306,28.318920549961934,14.00226679630762,29.472999178806344,16,29.85204886893431" fill="#ffb7b7" strokewidth="0"/>
</g>
<g id="SVGRepo_tracerCarrier" stroke-linecap="round" stroke-linejoin="round" stroke="#CCCCCC" stroke-width="0.384"/>
<g id="SVGRepo_iconCarrier"> <defs> <style>.b{fill:none;stroke:#5d4037;stroke-linecap:round;stroke-linejoin:round;}</style> </defs> <g> <path class="b" d="M24,24.4682H5.5c0,9.2155,11.597,17.1393,11.597,17.1393h6.903"/> <path class="b" d="M10.8843,26.5736c0,6.7924,7.6278,11.8041,7.6278,11.8041"/> <path class="b" d="M24,24.4682h18.5c0,9.2155-11.597,17.1393-11.597,17.1393h-6.903"/> <path class="b" d="M14.0942,24.4682c-1.3461-5.0392,7.6541-8.5034,15.7305-9.5733l.7892-1.4542,3.184,3.87-1.7473,.2847c-.8542,2.8087-5.1347,6.8728-5.1347,6.8728"/> <path class="b" d="M15.5093,24.4682c.2883-2.5946,3.2968-5.5138,14.7724-9.0189"/> <path class="b" d="M30.5784,15.8092c-4.3403,2.1744-9.4,4.6725-12.9464,8.659"/> <path class="b" d="M31.4253,16.8367c-4.5094,6.1259-7.4253,7.6315-7.4253,7.6315"/> <path class="b" d="M21.5047,24.4682c2.7196-1.5897,9.4897-8.1542,9.4897-8.1542"/> <path class="b" d="M33.0768,16.4532l8.1513-6.6057c.5628-.4561,.6493-1.282,.1932-1.8447h0c-.4561-.5628-1.282-.6493-1.8447-.1932l-8.1513,6.6057"/> </g> <line class="b" x1="29.8248" y1="14.8949" x2="32.0506" y2="17.5954"/> </g>
</svg>